<svg xmlns="http://www.w3.org/2000/svg" class="react-trip-board-button__svg" data-id="SVG_HEART__16" width="16" height="16" viewBox="0 0 16 16"><path class="react-trip-board-button__heart-core__heart-icon unhearted heart-icon--red-on-hover react-trip-board-button__heart-core-bg" fill="none" d="M8 3.98S9.13 2 11.5 2C13.57 2 15 3.7 15 5.73c0 2.86-2.98 4.6-7 8.27-4.02-3.67-7-5.41-7-8.27C1 3.7 2.43 2 4.5 2 6.88 2 8 3.98 8 3.98z"/><path class="react-trip-board-button__heart-core__heart-icon unhearted heart-icon--red-on-hover" fill="none" d="M8 3.98S9.13 2 11.5 2C13.57 2 15 3.7 15 5.73c0 2.86-2.98 4.6-7 8.27-4.02-3.67-7-5.41-7-8.27C1 3.7 2.43 2 4.5 2 6.88 2 8 3.98 8 3.98z"/></svg>