<svg xmlns="http://www.w3.org/2000/svg" data-id="SVG_TWITTER__24" width="24" height="24" fill="none" viewBox="0 0 24 24"><path fill="currentColor" fill-rule="evenodd" d="M22.5 4.95c-.75.45-1.5.6-2.4.75.75-.6 1.5-1.5 1.8-2.4-.75.45-1.8.9-2.7 1.05a4.35 4.35 0 0 0-7.35 3.9 12.3 12.3 0 0 1-9-4.5 4.35 4.35 0 0 0 1.5 5.85c-.75 0-1.5-.3-1.95-.6 0 2.1 1.5 3.9 3.45 4.35a4.349 4.349 0 0 1-1.95 0c.45 1.65 2.1 3 4.05 3a8.7 8.7 0 0 1-6.45 1.8A12.15 12.15 0 0 0 20.4 7.2c.75-.6 1.5-1.35 2.1-2.25z" clip-rule="evenodd"/></svg>