<svg xmlns="http://www.w3.org/2000/svg" class="size" viewBox="0 0 40 40"><path d="M25.53 16.6h-1.87a2.19 2.19 0 0 1 .34 1.16v6.5A10.83 10.83 0 0 1 9.14 34.31a11.33 11.33 0 0 0 18.66-8.64v-6.8a2.26 2.26 0 0 0-2.27-2.27Z" class="cls-1"/><path d="M7.4 16.6h18.13a2.26 2.26 0 0 1 2.27 2.27v6.8A11.34 11.34 0 0 1 16.47 37 11.34 11.34 0 0 1 5.13 25.67v-6.8A2.27 2.27 0 0 1 7.4 16.6Z" class="cls-2"/><path d="M27.8 18.87h2.27a6.82 6.82 0 0 1 6.8 6.8 6.82 6.82 0 0 1-6.8 6.8h-4.54m-10.2-9.07v-6.8M24.4 3c2.17 4.34-4.4 5.86-1.13 10.2M17.6 3c2.17 4.34-4.38 5.86-1.13 10.2M10.8 3C13 7.34 6.42 8.86 9.67 13.2m2.26 10.96a.76.76 0 0 1 .76-.76H18a.76.76 0 0 1 .75.76v5.28a.76.76 0 0 1-.75.76h-5.31a.76.76 0 0 1-.76-.76Z" class="cls-2"/></svg>