<svg xmlns="http://www.w3.org/2000/svg" class="size" viewBox="0 0 40 40"><path d="M37 30.19v4.53a2.27 2.27 0 0 1-2.27 2.27H18.86a2.27 2.27 0 0 1-2.27-2.27v-4.53H37z" class="cls-1"/><path d="M10.92 29A13.6 13.6 0 1 1 30.2 16.6" class="cls-2"/><path d="m8 6.1 8 3a2.26 2.26 0 0 1 1.43 2.57l-.47 2.37a2.26 2.26 0 0 1-1.68 1.75l-3.14.79L10.32 21a4.52 4.52 0 0 1-1.7 2.09L5.86 25M26 6.8l-2.21 4.42a2.28 2.28 0 0 0-.1 1.78l.85 2.51M16.6 26.8a2.27 2.27 0 0 1 2.26-2.27h15.87A2.27 2.27 0 0 1 37 26.8v7.93A2.27 2.27 0 0 1 34.73 37H18.86a2.27 2.27 0 0 1-2.26-2.27Zm4.53-2.27V37m11.33-12.47V37M23.4 24.53V23.4a3.4 3.4 0 1 1 6.8 0v1.13" class="cls-2"/></svg>