<svg xmlns="http://www.w3.org/2000/svg" class="size" viewBox="0 0 40 40"><path d="M20 16.6h4.53a2.27 2.27 0 0 1 2.27 2.27V25a2.27 2.27 0 0 1-2.27 2.27H20V16.6z" class="cls-1"/><path d="M5.27 7.79V19.3A18 18 0 0 0 16.8 36.09l1.57.6a4.47 4.47 0 0 0 3.26 0l1.57-.6A18 18 0 0 0 34.73 19.3V7.79a2.24 2.24 0 0 0-1.31-2.06A32.76 32.76 0 0 0 20 3 32.76 32.76 0 0 0 6.58 5.73a2.24 2.24 0 0 0-1.31 2.06Z" class="cls-2"/><path d="M13.2 18.86a2.27 2.27 0 0 1 2.27-2.26h9.06a2.27 2.27 0 0 1 2.27 2.26v6.8a2.27 2.27 0 0 1-2.27 2.27h-9.06a2.27 2.27 0 0 1-2.27-2.27zM20 9.8a4.53 4.53 0 0 0-4.53 4.53v2.27h9.06v-2.27A4.53 4.53 0 0 0 20 9.8Z" class="cls-2"/><path d="M20 21.74a.57.57 0 1 1-.57.57.57.57 0 0 1 .57-.57" class="cls-2"/></svg>