<svg xmlns="http://www.w3.org/2000/svg" class="size" viewBox="0 0 37 37"><g fill="none" fill-rule="evenodd"><path opacity=".8" d="M-1.86 38.714h40.001v-40h-40z"/><path d="M19.274 31.662c-1.893 5.629-16.509 5.187-18.134 0v-7.687c6.234 3.812 12.875 2.683 18.134 0v7.687z" fill="#CCE1F8"/><path d="M10.207 26.659c5.008 0 9.067-2.03 9.067-4.533 0-2.504-4.059-4.534-9.067-4.534-5.007 0-9.066 2.03-9.066 4.534 0 2.503 4.059 4.533 9.066 4.533z" stroke="#364353" stroke-linecap="round" stroke-linejoin="round" stroke-width="2"/><path d="M1.14 22.125v9.066c0 2.504 4.06 4.534 9.067 4.534 5.008 0 9.068-2.03 9.068-4.534v-9.066" stroke="#364353" stroke-linecap="round" stroke-linejoin="round" stroke-width="2"/><path d="M19.274 26.659c0 2.504-4.06 4.533-9.067 4.533-5.008 0-9.067-2.029-9.067-4.533m22.668-2.267h9.066a2.268 2.268 0 0 0 2.267-2.267V3.992a2.267 2.267 0 0 0-2.267-2.267H3.408a2.267 2.267 0 0 0-2.267 2.267v11.343" stroke="#364353" stroke-linecap="round" stroke-linejoin="round" stroke-width="2"/><path d="M13.607 13.058a4.535 4.535 0 0 1 8.554-2.094 4.532 4.532 0 0 1-1.031 5.502M6.808 6.825a.567.567 0 1 1-.002 1.133.567.567 0 0 1 .002-1.133m22.666 11.334a.567.567 0 1 1 0 1.134.567.567 0 0 1 0-1.134" stroke="#364353" stroke-linecap="round" stroke-linejoin="round" stroke-width="2"/></g></svg>