<svg xmlns="http://www.w3.org/2000/svg" data-id="SVG_PINTEREST__24" width="24" height="24" fill="none" viewBox="0 0 24 24"><path fill="currentColor" fill-rule="evenodd" d="M12 1.5a10.5 10.5 0 0 0-3.825 20.28c-.142-1-.132-2.017.03-3.015l1.23-5.22S9.15 12.915 9.15 12c0-1.455.84-2.55 1.89-2.55.9 0 1.335.675 1.335 1.485 0 .9-.585 2.25-.87 3.495-.255 1.05.525 1.89 1.545 1.89 1.875 0 3.3-1.95 3.3-4.8 0-2.52-1.8-4.275-4.38-4.275-3 0-4.74 2.25-4.74 4.56 0 .9.345 1.86.78 2.4a.3.3 0 0 1 .075.3l-.3 1.185c-.045.195-.15.24-.345.15-1.305-.615-2.13-2.55-2.13-4.08 0-3.3 2.4-6.345 6.93-6.345 3.645 0 6.48 2.595 6.48 6.06 0 3.615-2.28 6.525-5.445 6.525-1.065 0-2.07-.555-2.4-1.2l-.66 2.49c-.24.915-.885 2.055-1.305 2.76A10.501 10.501 0 1 0 12 1.5z" clip-rule="evenodd"/></svg>