<svg xmlns="http://www.w3.org/2000/svg" data-id="SVG_INSTAGRAM__24" width="24" height="24" fill="none" viewBox="0 0 24 24"><path fill="currentColor" d="M3.87 7.75v8.4a3.88 3.88 0 0 0 3.88 3.88h8.5a3.88 3.88 0 0 0 3.88-3.88v-8.4a3.88 3.88 0 0 0-3.88-3.88h-8.5a3.88 3.88 0 0 0-3.88 3.88zm-1.84 0a5.73 5.73 0 0 1 5.72-5.72h8.5a5.73 5.73 0 0 1 5.73 5.72v8.4a5.73 5.73 0 0 1-5.73 5.72h-8.5a5.73 5.73 0 0 1-5.72-5.72v-8.4z"/><path fill="currentColor" d="M12.03 17.28a5.251 5.251 0 1 1 0-10.502 5.251 5.251 0 0 1 0 10.502zm0-1.85a3.4 3.4 0 1 0 0-6.8 3.4 3.4 0 0 0 0 6.8zm5.3-7.51a1.27 1.27 0 1 0 0-2.54 1.27 1.27 0 0 0 0 2.54z"/></svg>