<svg xmlns="http://www.w3.org/2000/svg" data-id="SVG_LINKEDIN__24" width="24" height="24" fill="none" viewBox="0 0 24 24"><path fill="currentColor" fill-rule="evenodd" d="M19.395 19.395h-3.12V14.52c0-1.155 0-2.655-1.62-2.655s-1.86 1.26-1.86 2.565v4.95H9.69V9.39h2.985v1.365h.03c.42-.78 1.44-1.62 2.955-1.62 3.15 0 3.735 2.085 3.735 4.785v5.49-.015zm-13.23-11.4a1.8 1.8 0 1 1 0-3.6 1.8 1.8 0 0 1 0 3.6zm1.56 11.4h-3.12V9.375h3.12v10.02zM21.63 1.5H2.37a.87.87 0 0 0-.87.87v19.26c0 .48.39.87.87.87h19.26c.48 0 .87-.39.87-.87V2.37a.87.87 0 0 0-.87-.87z" clip-rule="evenodd"/></svg>